HIERARCHY
ROOT Hips
{
	OFFSET 151.697800 93.143646 -72.043053
	CHANNELS 6 Xposition Yposition Zposition Zrotation Yrotation Xrotation 
	JOINT LeftUpLeg
	{
		OFFSET 0.103458 1.857831 10.548505
		CHANNELS 3 Zrotation Yrotation Xrotation
		JOINT LeftLeg
		{
			OFFSET 43.500000 -0.000031 0.000002
			CHANNELS 3 Zrotation Yrotation Xrotation
			JOINT LeftFoot
			{
				OFFSET 42.372200 0.000023 0.000003
				CHANNELS 3 Zrotation Yrotation Xrotation
				JOINT LeftToe
				{
					OFFSET 17.299997 -0.000001 -0.000010
					CHANNELS 3 Zrotation Yrotation Xrotation
					End Site
					{
						OFFSET 0.000000 0.000000 0.000000
					}
				}
			}
		}
	}
	JOINT RightUpLeg
	{
		OFFSET 0.103457 1.857828 -10.548510
		CHANNELS 3 Zrotation Yrotation Xrotation
		JOINT RightLeg
		{
			OFFSET 43.500046 -0.000015 0.000002
			CHANNELS 3 Zrotation Yrotation Xrotation
			JOINT RightFoot
			{
				OFFSET 42.372261 -0.000008 0.000023
				CHANNELS 3 Zrotation Yrotation Xrotation
				JOINT RightToe
				{
					OFFSET 17.299990 -0.000007 -0.000002
					CHANNELS 3 Zrotation Yrotation Xrotation
					End Site
					{
						OFFSET 0.000000 0.000000 0.000000
					}
				}
			}
		}
	}
	JOINT Spine
	{
		OFFSET 6.901967 -2.603726 -0.000001
		CHANNELS 3 Zrotation Yrotation Xrotation
		JOINT Spine1
		{
			OFFSET 12.588100 -0.000009 -0.000003
			CHANNELS 3 Zrotation Yrotation Xrotation
			JOINT Spine2
			{
				OFFSET 12.343202 0.000008 0.000008
				CHANNELS 3 Zrotation Yrotation Xrotation
				JOINT Neck
				{
					OFFSET 25.832897 -0.000015 -0.000004
					CHANNELS 3 Zrotation Yrotation Xrotation
					JOINT Head
					{
						OFFSET 11.766609 0.000013 -0.000006
						CHANNELS 3 Zrotation Yrotation Xrotation
						End Site
						{
							OFFSET 0.000000 0.000000 0.000000
						}
					}
				}
				JOINT LeftShoulder
				{
					OFFSET 19.745911 -1.480373 6.000098
					CHANNELS 3 Zrotation Yrotation Xrotation
					JOINT LeftArm
					{
						OFFSET 11.284123 -0.000007 -0.000032
						CHANNELS 3 Zrotation Yrotation Xrotation
						JOINT LeftForeArm
						{
							OFFSET 33.000050 0.000005 0.000031
							CHANNELS 3 Zrotation Yrotation Xrotation
							JOINT LeftHand
							{
								OFFSET 25.200008 0.000017 0.000013
								CHANNELS 3 Zrotation Yrotation Xrotation
								End Site
								{
									OFFSET 0.000000 0.000000 0.000000
								}
							}
						}
					}
				}
				JOINT RightShoulder
				{
					OFFSET 19.746092 -1.480379 -6.000077
					CHANNELS 3 Zrotation Yrotation Xrotation
					JOINT RightArm
					{
						OFFSET 11.284136 -0.000017 -0.000017
						CHANNELS 3 Zrotation Yrotation Xrotation
						JOINT RightForeArm
						{
							OFFSET 33.000099 0.000019 0.000015
							CHANNELS 3 Zrotation Yrotation Xrotation
							JOINT RightHand
							{
								OFFSET 25.199780 0.000140 0.000408
								CHANNELS 3 Zrotation Yrotation Xrotation
								End Site
								{
									OFFSET 0.000000 0.000000 0.000000
								}
							}
						}
					}
				}
			}
		}
	}
}
MOTION
Frames: 10
Frame Time: 0.033333
299.940186 83.859703 94.508232 95.444640 -2.793854 -85.172479 -167.539882 -4.610498 173.542061 -48.394991 1.953591 -1.318806 71.513173 -1.163761 -6.287942 21.454545 0.003093 0.000002 148.541602 -2.142104 -172.394016 -45.552147 4.252696 3.633830 79.987929 -3.141956 -1.930279 21.454560 -0.003110 -0.000017 6.931308 1.680543 -1.481596 3.808168 3.408287 -2.909028 3.489905 3.390798 -2.929553 -3.913610 6.161012 -3.289884 -6.407315 -4.030476 -0.964276 175.246111 -79.232482 3.283280 -64.456946 38.999943 -28.789186 -91.258642 -3.584513 2.611646 -6.735960 -6.979769 25.441054 -152.269915 71.044773 29.919230 17.810726 -46.362166 -53.001841 -39.956152 17.852137 -1.670353 1.352381 8.610770 -7.123566 
299.778198 84.750679 90.607590 95.568656 -3.084068 -85.046326 -174.079269 -5.291696 174.627515 -61.129203 1.888564 -2.448689 64.988690 -0.164269 -4.807610 21.454557 0.003088 -0.000001 152.110171 -2.410297 -173.008938 -44.761150 4.805379 3.736982 82.567070 -3.028155 -1.337622 21.454558 -0.003103 -0.000017 7.006369 1.843467 -1.191481 3.964213 3.726137 -2.321038 3.645679 3.712175 -2.343501 -3.810202 6.288088 -3.040259 -6.158191 -4.599858 -0.552432 -177.946099 -77.938503 -3.618609 -60.068481 45.200898 -24.540219 -91.909034 -3.425217 2.629382 -6.477959 -7.164346 25.211797 -153.988500 70.012376 28.176644 13.538362 -49.702655 -47.137936 -37.941615 18.427396 -1.655191 2.512887 9.676909 -5.486960 
299.485413 86.051170 86.837837 95.252903 -3.345302 -85.329301 179.411079 -5.589407 174.993203 -70.703400 1.797136 -3.118196 67.265288 0.350609 -4.972189 21.454548 0.003089 0.000005 156.509222 -2.615918 -174.489176 -41.959819 5.272367 4.064951 83.743399 -3.147247 -0.894030 21.454558 -0.003107 -0.000017 7.077975 1.834916 -0.750192 4.122028 3.695034 -1.435995 3.803331 3.686426 -1.458291 -3.192410 6.370040 -2.704298 -6.568696 -4.882774 -0.142573 -172.230337 -76.928598 -9.437083 -53.668485 51.354447 -17.104240 -89.811640 -4.793741 2.632019 -5.222056 -4.325873 31.613633 -156.810707 69.268029 25.282758 8.411328 -52.592450 -41.884943 -37.138279 18.073227 -1.612039 3.620707 12.067177 -3.922578 
299.023285 87.611740 82.985924 94.480825 -3.592723 -85.944093 172.932877 -5.461903 174.302316 -76.788272 1.771994 -3.832815 69.739892 1.254631 -4.169076 21.454551 0.003090 -0.000000 161.703950 -2.308397 -175.631648 -37.632782 5.286509 3.995397 83.975639 -3.041088 -0.631926 21.454558 -0.003106 -0.000017 7.150988 1.698674 -0.229575 4.285107 3.404526 -0.396866 3.966402 3.402213 -0.417445 -2.846564 5.578104 -2.324195 -6.472756 -4.069797 -0.157413 -168.526585 -75.565122 -13.218316 -44.414825 56.021874 -5.536067 -85.144797 -7.545575 2.618529 -4.189358 -3.487700 40.426674 -158.162306 69.852433 23.877102 2.397702 -55.930927 -38.443918 -37.496444 18.288083 -1.634897 4.929136 11.637797 -4.188494 
298.499390 88.951012 79.217758 93.579138 -3.315114 -86.673591 166.481080 -5.384008 173.406031 -79.146142 1.387972 -4.682157 69.624462 1.619333 -4.947333 21.454560 0.003100 0.000005 166.278469 -1.681904 -176.422625 -33.210531 5.022353 3.732649 83.876765 -2.782841 -0.281957 21.454560 -0.003103 -0.000017 7.130565 1.457180 0.299032 4.257887 2.902449 0.651149 3.939379 2.906448 0.633600 -2.704540 4.708345 -2.361926 -6.781992 -3.642574 -0.478691 -164.275584 -74.197527 -17.576612 -34.070312 58.895587 7.714805 -78.458608 -11.064423 2.573723 -4.077070 -6.159429 44.885015 -159.548096 70.734423 22.433842 -4.211759 -58.168186 -36.485863 -39.719507 18.827616 -1.727587 4.297427 12.108956 -5.913446 
298.072815 90.000557 75.357033 92.913795 -2.998676 -87.407215 160.643208 -5.479396 172.021784 -78.629923 1.343705 -5.391545 70.154765 2.561809 -3.794812 21.454551 0.003090 0.000001 170.851663 -1.322503 -177.148620 -28.588909 4.616077 3.620447 83.566804 -2.594842 0.189173 21.454562 -0.003120 -0.000018 7.121047 1.254382 0.825417 4.248568 2.477884 1.696278 3.930301 2.488220 1.681276 -2.941355 3.042575 -2.251076 -7.203594 -2.102424 -1.093808 -161.782757 -73.585303 -20.138601 -23.330295 60.893056 19.129289 -70.513241 -14.048230 2.446617 -4.449826 -7.686961 42.962809 -162.221514 71.745687 19.668225 -10.585671 -59.051391 -34.298034 -43.528396 19.735171 -1.893781 2.354195 11.826173 -9.982742 
297.556396 90.542587 71.536346 92.167631 -2.603811 -88.111872 155.403292 -5.492393 171.670822 -75.440443 0.549626 -5.597692 69.564985 2.476516 -4.550579 21.454545 0.003101 -0.000007 174.606601 -0.432496 -177.165299 -25.387890 4.426223 3.154842 83.739082 -2.193066 0.531741 21.454555 -0.003108 -0.000016 7.165535 0.986275 1.333694 4.341518 1.922261 2.703461 4.023612 1.938686 2.691818 -3.794746 1.560039 -2.397555 -7.966865 -1.353000 -1.718868 -160.237604 -72.816913 -21.734512 -14.221303 60.854930 27.652613 -62.647287 -15.859896 2.257535 -0.042394 -9.153396 34.072815 -164.175222 73.478383 17.644394 -17.356761 -59.523097 -30.336866 -48.850234 20.053031 -2.079813 1.333998 10.478732 -15.527510 
297.186707 90.587601 67.829170 92.013986 -2.335564 -88.494636 151.050535 -6.089209 171.788437 -69.945351 -0.321311 -5.126307 70.476610 2.245412 -4.435182 21.454548 0.003094 0.000001 177.995153 0.021690 -177.470581 -22.987719 4.816504 3.015758 84.389863 -2.064899 0.746448 21.454558 -0.003105 -0.000017 7.293256 0.822099 1.775575 4.598729 1.573554 3.582456 4.281193 1.595267 3.572910 -4.715419 0.546350 -2.499321 -8.357169 -0.595555 -2.233536 -159.085365 -72.330392 -22.925588 -8.112839 59.473578 32.640439 -54.805274 -15.948329 1.975112 5.535555 -11.365189 23.204917 -167.143212 74.438339 14.596046 -23.220881 -58.006222 -25.247605 -55.310483 19.825524 -2.286703 0.064466 8.265773 -21.102163 
296.801208 90.294403 64.009148 91.775428 -2.553244 -88.235000 148.394821 -6.113716 172.477221 -61.632055 -1.353511 -5.114257 69.598603 2.415999 -3.945624 21.454550 0.003113 -0.000001 -178.113725 0.561700 -177.507929 -20.880045 5.231493 3.018887 85.627787 -2.039134 0.974561 21.454555 -0.003095 -0.000016 7.562320 0.644307 2.065738 5.133844 1.196875 4.158042 4.816583 1.222076 4.150756 -5.054247 -0.076565 -2.743772 -9.577344 0.008380 -2.788026 -157.299461 -72.742205 -24.752708 -6.431296 58.271629 35.162845 -45.296879 -15.531857 1.640294 10.794114 -10.834252 12.454002 -169.647597 75.266137 12.030921 -28.258087 -55.786458 -19.520187 -61.656145 18.799196 -2.454637 -0.592266 7.211165 -24.582693 
296.379303 89.771812 60.186649 91.622712 -2.637229 -87.520097 147.318315 -5.522522 172.955525 -50.039622 -1.638251 -5.112942 68.154558 2.548709 -3.522764 21.454548 0.003089 -0.000000 -174.272441 0.836187 -178.417983 -18.618285 5.765305 3.826759 86.900080 -2.547181 1.341777 21.454560 -0.003108 -0.000017 7.797778 0.478923 2.252403 5.599671 0.848824 4.525297 5.282623 0.876240 4.520118 -4.899148 0.043217 -3.166807 -10.622442 0.072043 -3.213402 -158.315684 -72.910425 -23.706313 -6.123614 56.045271 35.921136 -35.968613 -14.247745 1.308840 13.797594 -8.128385 6.507028 -171.005889 75.728841 10.642574 -32.080456 -53.151139 -14.001267 -67.109921 17.428852 -2.577306 -1.089125 6.607111 -27.875908 
